<svg width="24" height="24" viewBox="0 0 24 24" fill="none" xmlns="http://www.w3.org/2000/svg">
<g clip-path="url(#clip0)">
<path d="M1.5002 1.6328C-0.385801 3.5918 0.000199258 5.6728 0.000199258 11.9948C0.000199258 17.2448 -0.915801 22.5078 3.8782 23.7468C5.3752 24.1318 18.6392 24.1318 20.1342 23.7448C22.1302 23.2298 23.7542 21.6108 23.9762 18.7878C24.0072 18.3938 24.0072 5.6028 23.9752 5.2008C23.7392 2.1938 21.8882 0.460802 19.4492 0.109802C18.8902 0.0288023 18.7782 0.00480225 15.9102 -0.000197746C5.7372 0.00480225 3.5072 -0.448198 1.5002 1.6328Z" fill="url(#paint0_linear)"/>
<path d="M11.9978 3.13892C8.36681 3.13892 4.91881 2.81592 3.60181 6.19592C3.05781 7.59192 3.13681 9.40492 3.13681 12.0009C3.13681 14.2789 3.06381 16.4199 3.60181 17.8049C4.91581 21.1869 8.39181 20.8629 11.9958 20.8629C15.4728 20.8629 19.0578 21.2249 20.3908 17.8049C20.9358 16.3949 20.8558 14.6089 20.8558 12.0009C20.8558 8.53892 21.0468 6.30392 19.3678 4.62592C17.6678 2.92592 15.3688 3.13892 11.9938 3.13892H11.9978ZM11.2038 4.73592C18.7778 4.72392 19.7418 3.88192 19.2098 15.5789C19.0208 19.7159 15.8708 19.2619 11.9988 19.2619C4.93881 19.2619 4.73581 19.0599 4.73581 11.9969C4.73581 4.85192 5.29581 4.73992 11.2038 4.73392V4.73592ZM16.7278 6.20692C16.1408 6.20692 15.6648 6.68292 15.6648 7.26992C15.6648 7.85692 16.1408 8.33292 16.7278 8.33292C17.3148 8.33292 17.7908 7.85692 17.7908 7.26992C17.7908 6.68292 17.3148 6.20692 16.7278 6.20692ZM11.9978 7.44992C9.48481 7.44992 7.44781 9.48793 7.44781 12.0009C7.44781 14.5139 9.48481 16.5509 11.9978 16.5509C14.5108 16.5509 16.5468 14.5139 16.5468 12.0009C16.5468 9.48793 14.5108 7.44992 11.9978 7.44992ZM11.9978 9.04692C15.9028 9.04692 15.9078 14.9549 11.9978 14.9549C8.09381 14.9549 8.08781 9.04692 11.9978 9.04692Z" fill="white"/>
</g>
<defs>
<linearGradient id="paint0_linear" x1="1.54622" y1="22.4669" x2="23.8517" y2="3.16178" gradientUnits="userSpaceOnUse">
<stop stop-color="#FFDD55"/>
<stop offset="0.5" stop-color="#FF543E"/>
<stop offset="1" stop-color="#C837AB"/>
</linearGradient>
<clipPath id="clip0">
<rect width="24" height="24" fill="white"/>
</clipPath>
</defs>
</svg>
