<svg width="10" height="15" viewBox="0 0 10 15" fill="none" xmlns="http://www.w3.org/2000/svg">
<path d="M6.16575 0.5H2.27989C1.87918 0.5 1.55432 0.846952 1.55432 1.27491V7.14008H0.72557C0.324862 7.14008 0 7.48703 0 7.91499C0 8.34294 0.324862 8.6899 0.72557 8.6899H1.55432V10.4601H0.72557C0.324862 10.4601 0 10.8071 0 11.2351C0 11.663 0.324862 12.01 0.72557 12.01H1.55432V13.7251C1.55432 14.153 1.87918 14.5 2.27989 14.5C2.68059 14.5 3.00546 14.153 3.00546 13.7251V12.01H6.16575C6.56646 12.01 6.89132 11.663 6.89132 11.2351C6.89132 10.8071 6.56646 10.4601 6.16575 10.4601H3.00546V8.6899H6.16575C8.27996 8.6899 10 6.8529 10 4.59492C9.99995 2.28115 8.23522 0.5 6.16575 0.5ZM6.16575 7.14008H3.00546V2.04982H6.16575C7.47187 2.04982 8.54886 3.17498 8.54886 4.59497C8.54881 5.99838 7.4798 7.14008 6.16575 7.14008Z" fill="black"/>
</svg>
