<svg width="16" height="16" viewBox="0 0 16 16" fill="none" xmlns="http://www.w3.org/2000/svg">
<path d="M2.6001 4.3999H3.8001H13.4001" stroke="black" stroke-linecap="round" stroke-linejoin="round"/>
<path d="M5.60005 4.4V3.2C5.60005 2.88174 5.72648 2.57652 5.95152 2.35147C6.17656 2.12643 6.48179 2 6.80005 2H9.20005C9.51831 2 9.82353 2.12643 10.0486 2.35147C10.2736 2.57652 10.4 2.88174 10.4 3.2V4.4M12.2 4.4V12.8C12.2 13.1183 12.0736 13.4235 11.8486 13.6485C11.6235 13.8736 11.3183 14 11 14H5.00005C4.68179 14 4.37656 13.8736 4.15152 13.6485C3.92648 13.4235 3.80005 13.1183 3.80005 12.8V4.4H12.2Z" stroke="black" stroke-linecap="round" stroke-linejoin="round"/>
</svg>
