<svg width="24" height="24" viewBox="0 0 24 24" fill="none" xmlns="http://www.w3.org/2000/svg">
<path d="M12 24C18.6274 24 24 18.6274 24 12C24 5.37258 18.6274 0 12 0C5.37258 0 0 5.37258 0 12C0 18.6274 5.37258 24 12 24Z" fill="#4D76A1"/>
<path fill-rule="evenodd" clip-rule="evenodd" d="M11.5467 17.263H12.4885C12.4885 17.263 12.773 17.2317 12.9183 17.0752C13.0519 16.9314 13.0477 16.6615 13.0477 16.6615C13.0477 16.6615 13.0293 15.3977 13.6158 15.2116C14.194 15.0282 14.9365 16.433 15.7235 16.9731C16.3186 17.3819 16.7708 17.2923 16.7708 17.2923L18.875 17.263C18.875 17.263 19.9758 17.1952 19.4539 16.3297C19.4111 16.2589 19.1499 15.6894 17.8893 14.5193C16.5699 13.2947 16.7466 13.4928 18.336 11.3744C19.3039 10.0843 19.6909 9.2967 19.57 8.95936C19.4547 8.63807 18.7428 8.72299 18.7428 8.72299L16.3736 8.73775C16.3736 8.73775 16.1979 8.71379 16.0677 8.79166C15.9404 8.86802 15.8585 9.046 15.8585 9.046C15.8585 9.046 15.4835 10.0443 14.9834 10.8933C13.9283 12.6848 13.5065 12.7794 13.3341 12.6682C12.933 12.4089 13.0331 11.6266 13.0331 11.0709C13.0331 9.33478 13.2964 8.6109 12.5204 8.42352C12.2628 8.36127 12.0733 8.3202 11.4147 8.31357C10.5693 8.3048 9.85376 8.31613 9.44861 8.51464C9.17908 8.64663 8.97116 8.94075 9.0978 8.95765C9.25438 8.97862 9.60905 9.05327 9.79707 9.30932C10.0399 9.6396 10.0313 10.3814 10.0313 10.3814C10.0313 10.3814 10.1708 12.4252 9.70552 12.6791C9.38615 12.8532 8.94806 12.4977 8.00749 10.8724C7.52555 10.0398 7.16169 9.11958 7.16169 9.11958C7.16169 9.11958 7.09152 8.9476 6.96638 8.85562C6.81451 8.74417 6.60231 8.70866 6.60231 8.70866L4.35089 8.72342C4.35089 8.72342 4.01291 8.73283 3.88884 8.87979C3.77846 9.01049 3.88007 9.28087 3.88007 9.28087C3.88007 9.28087 5.6427 13.4047 7.63849 15.4828C9.46851 17.3881 11.5467 17.263 11.5467 17.263Z" fill="white"/>
</svg>
