<svg width="190" height="73" viewBox="0 0 190 73" fill="none" xmlns="http://www.w3.org/2000/svg">
<path d="M8.64 33.6C8.64 34.4533 8.73333 35.08 8.92 35.48C9.10667 35.8533 9.45333 36.12 9.96 36.28C10.4933 36.44 11.3333 36.52 12.48 36.52C12.56 36.52 12.6 36.6 12.6 36.76C12.6 36.92 12.56 37 12.48 37C11.3867 37 10.5333 36.9867 9.92 36.96L6.44 36.92L3.52 36.96C2.98667 36.9867 2.26667 37 1.36 37C1.28 37 1.24 36.92 1.24 36.76C1.24 36.6 1.28 36.52 1.36 36.52C2.21333 36.52 2.82667 36.4533 3.2 36.32C3.6 36.1867 3.86667 35.9333 4 35.56C4.13333 35.16 4.2 34.56 4.2 33.76V15.24C4.2 14.44 4.13333 13.8533 4 13.48C3.86667 13.1067 3.6 12.8533 3.2 12.72C2.8 12.56 2.18667 12.48 1.36 12.48C1.28 12.48 1.24 12.4 1.24 12.24C1.24 12.08 1.28 12 1.36 12L3.48 12.04C4.70667 12.0933 5.68 12.12 6.4 12.12C7.04 12.12 7.8 12.08 8.68 12C9.02667 11.9733 9.46667 11.9467 10 11.92C10.5333 11.8933 11.1467 11.88 11.84 11.88C14.56 11.88 16.7067 12.4533 18.28 13.6C19.8533 14.72 20.64 16.4667 20.64 18.84C20.64 20.4933 20.2133 21.8933 19.36 23.04C18.5067 24.1867 17.4 25.0533 16.04 25.64C14.7067 26.2267 13.3333 26.52 11.92 26.52C11.2 26.52 10.5733 26.4533 10.04 26.32C9.98667 26.32 9.96 26.2533 9.96 26.12C9.96 26.04 9.97333 25.96 10 25.88C10.0533 25.8 10.1067 25.7733 10.16 25.8C10.56 25.9067 11.0133 25.96 11.52 25.96C12.7467 25.96 13.76 25.3867 14.56 24.24C15.3867 23.0933 15.8 21.4667 15.8 19.36C15.8 17.2533 15.3467 15.6267 14.44 14.48C13.56 13.3333 12.2667 12.76 10.56 12.76C9.81333 12.76 9.30667 12.9333 9.04 13.28C8.77333 13.6267 8.64 14.3067 8.64 15.32V33.6ZM36.6919 34.36C36.7452 34.36 36.7985 34.4133 36.8519 34.52C36.9319 34.6267 36.9452 34.7067 36.8919 34.76C35.9052 35.72 34.9052 36.4133 33.8919 36.84C32.8785 37.2667 31.7719 37.48 30.5719 37.48C28.8919 37.48 27.4385 37.1333 26.2119 36.44C24.9852 35.72 24.0519 34.7733 23.4119 33.6C22.7719 32.4 22.4519 31.1067 22.4519 29.72C22.4519 28.1733 22.8385 26.7467 23.6119 25.44C24.3852 24.1333 25.4519 23.1067 26.8119 22.36C28.1985 21.5867 29.7585 21.2 31.4919 21.2C33.1452 21.2 34.4252 21.5733 35.3319 22.32C36.2385 23.0667 36.6919 24.2267 36.6919 25.8C36.6919 26.6267 36.5452 27.04 36.2519 27.04L26.5319 27.08C26.5052 27.2667 26.4919 27.5733 26.4919 28C26.4919 30.3467 27.0252 32.1867 28.0919 33.52C29.1852 34.8533 30.7452 35.52 32.7719 35.52C33.4919 35.52 34.1052 35.44 34.6119 35.28C35.1185 35.12 35.7852 34.8267 36.6119 34.4L36.6919 34.36ZM29.9719 22C29.0919 22 28.3585 22.3867 27.7719 23.16C27.1852 23.9067 26.7985 24.9467 26.6119 26.28L32.4119 26.2C32.3852 24.84 32.1852 23.8 31.8119 23.08C31.4385 22.36 30.8252 22 29.9719 22ZM60.0506 36.52C60.1306 36.52 60.1706 36.6 60.1706 36.76C60.1706 36.92 60.1306 37 60.0506 37C59.2773 37 58.6773 36.9867 58.2506 36.96L56.0506 36.92L53.9306 36.96C53.584 36.9867 53.0906 37 52.4506 37C52.3706 37 52.3306 36.92 52.3306 36.76C52.3306 36.6 52.3706 36.52 52.4506 36.52C53.0906 36.52 53.544 36.4267 53.8106 36.24C54.0773 36.0267 54.2106 35.5867 54.2106 34.92C54.2106 34.7867 54.184 34.4533 54.1306 33.92L53.3306 27.32L48.6906 37C48.664 37.1067 48.5706 37.16 48.4106 37.16C48.224 37.16 48.1173 37.1067 48.0906 37L42.2906 27.16L41.8506 32.84C41.6906 35.2933 42.5973 36.52 44.5706 36.52C44.6506 36.52 44.6906 36.6 44.6906 36.76C44.6906 36.92 44.6506 37 44.5706 37C43.9573 37 43.4773 36.9867 43.1306 36.96L41.4106 36.92L39.7306 36.96C39.4106 36.9867 38.9573 37 38.3706 37C38.2906 37 38.2506 36.92 38.2506 36.76C38.2506 36.6 38.2906 36.52 38.3706 36.52C39.1973 36.52 39.824 36.2133 40.2506 35.6C40.6773 34.9867 40.9306 34.0667 41.0106 32.84L41.8506 21.44C41.8506 21.36 41.9306 21.2933 42.0906 21.24C42.2506 21.16 42.424 21.12 42.6106 21.12C42.8773 21.12 43.0506 21.1867 43.1306 21.32L49.8506 32.64L55.2906 21.32C55.344 21.24 55.464 21.2 55.6506 21.2C55.8106 21.2 55.9706 21.24 56.1306 21.32C56.3173 21.3733 56.4106 21.4267 56.4106 21.48L57.8506 33.76C57.9573 34.64 58.064 35.2533 58.1706 35.6C58.2773 35.9467 58.464 36.1867 58.7306 36.32C58.9973 36.4533 59.4373 36.52 60.0506 36.52ZM70.0659 37.52C68.4126 37.52 66.9593 37.1467 65.7059 36.4C64.4793 35.6267 63.5326 34.6 62.8659 33.32C62.1993 32.0133 61.8659 30.6 61.8659 29.08C61.8659 27.3467 62.3059 25.88 63.1859 24.68C64.0659 23.4533 65.1859 22.5467 66.5459 21.96C67.9059 21.3467 69.3059 21.04 70.7459 21.04C72.3993 21.04 73.8393 21.4267 75.0659 22.2C76.2926 22.9733 77.2259 24 77.8659 25.28C78.5326 26.5333 78.8659 27.88 78.8659 29.32C78.8659 30.92 78.4659 32.3467 77.6659 33.6C76.8659 34.8267 75.7859 35.7867 74.4259 36.48C73.0926 37.1733 71.6393 37.52 70.0659 37.52ZM71.2659 36.68C72.3059 36.68 73.0926 36.1733 73.6259 35.16C74.1859 34.12 74.4659 32.64 74.4659 30.72C74.4659 28.8533 74.2259 27.2533 73.7459 25.92C73.2659 24.5867 72.6393 23.5867 71.8659 22.92C71.0926 22.2267 70.2659 21.88 69.3859 21.88C67.2526 21.88 66.1859 23.7867 66.1859 27.6C66.1859 29.3867 66.4126 30.9733 66.8659 32.36C67.3193 33.72 67.9326 34.7867 68.7059 35.56C69.4793 36.3067 70.3326 36.68 71.2659 36.68ZM100.276 36.52C100.33 36.52 100.356 36.6 100.356 36.76C100.356 36.92 100.33 37 100.276 37C99.5296 37 98.9563 36.9867 98.5563 36.96L96.3163 36.92L93.9563 36.96C93.5296 36.9867 92.9429 37 92.1963 37C92.1163 37 92.0763 36.92 92.0763 36.76C92.0763 36.6 92.1163 36.52 92.1963 36.52C92.8363 36.52 93.3029 36.4533 93.5963 36.32C93.9163 36.1867 94.1296 35.9333 94.2363 35.56C94.3429 35.16 94.3963 34.56 94.3963 33.76V29.76H87.3563V33.76C87.3563 34.56 87.4096 35.16 87.5163 35.56C87.6229 35.9333 87.8229 36.1867 88.1163 36.32C88.4096 36.4533 88.8763 36.52 89.5163 36.52C89.5696 36.52 89.5963 36.6 89.5963 36.76C89.5963 36.92 89.5696 37 89.5163 37C88.7696 37 88.1963 36.9867 87.7963 36.96L85.5563 36.92L83.2363 36.96C82.8096 36.9867 82.2096 37 81.4363 37C81.3563 37 81.3163 36.92 81.3163 36.76C81.3163 36.6 81.3563 36.52 81.4363 36.52C82.0763 36.52 82.5429 36.4533 82.8363 36.32C83.1563 36.1867 83.3696 35.9333 83.4763 35.56C83.5829 35.16 83.6363 34.56 83.6363 33.76V24.8C83.6363 24 83.5829 23.4133 83.4763 23.04C83.3696 22.64 83.1563 22.3733 82.8363 22.24C82.5429 22.1067 82.0896 22.04 81.4762 22.04C81.3963 22.04 81.3563 21.96 81.3563 21.8C81.3563 21.64 81.3963 21.56 81.4762 21.56C82.2229 21.56 82.7963 21.5733 83.1963 21.6L85.5563 21.64L87.7963 21.6C88.2229 21.5733 88.7963 21.56 89.5163 21.56C89.5696 21.56 89.5963 21.64 89.5963 21.8C89.5963 21.96 89.5696 22.04 89.5163 22.04C88.9029 22.04 88.4363 22.12 88.1163 22.28C87.8229 22.44 87.6229 22.72 87.5163 23.12C87.4096 23.4933 87.3563 24.08 87.3563 24.88V28.8H94.3963V24.8C94.3963 24 94.3429 23.4133 94.2363 23.04C94.1296 22.64 93.9163 22.3733 93.5963 22.24C93.3029 22.1067 92.8496 22.04 92.2363 22.04C92.1563 22.04 92.1163 21.96 92.1163 21.8C92.1163 21.64 92.1563 21.56 92.2363 21.56C92.9829 21.56 93.5563 21.5733 93.9563 21.6L96.3163 21.64L98.5563 21.6C98.9829 21.5733 99.5563 21.56 100.276 21.56C100.33 21.56 100.356 21.64 100.356 21.8C100.356 21.96 100.33 22.04 100.276 22.04C99.6629 22.04 99.1963 22.12 98.8763 22.28C98.5829 22.44 98.3829 22.72 98.2763 23.12C98.1696 23.4933 98.1163 24.08 98.1163 24.88V33.76C98.1163 34.56 98.1696 35.16 98.2763 35.56C98.3829 35.9333 98.5829 36.1867 98.8763 36.32C99.1696 36.4533 99.6363 36.52 100.276 36.52ZM105.963 37C105.883 37 105.843 36.92 105.843 36.76C105.843 36.6 105.883 36.52 105.963 36.52C106.603 36.52 107.069 36.4533 107.363 36.32C107.683 36.1867 107.896 35.9333 108.003 35.56C108.109 35.16 108.163 34.56 108.163 33.76V24.88C108.163 23.9467 108.083 23.3067 107.923 22.96C107.789 22.6133 107.509 22.44 107.083 22.44C106.309 22.44 105.549 22.8533 104.803 23.68C104.083 24.5067 103.563 25.5333 103.243 26.76C103.216 26.8133 103.123 26.84 102.963 26.84C102.829 26.84 102.763 26.8133 102.763 26.76L102.683 24.16C102.629 23.0933 102.603 22.3333 102.603 21.88C102.603 21.72 102.616 21.6267 102.643 21.6C102.669 21.5467 102.763 21.52 102.923 21.52C103.483 21.52 103.976 21.5333 104.403 21.56L109.923 21.6L115.563 21.56C116.016 21.5333 116.536 21.52 117.123 21.52C117.309 21.52 117.416 21.5467 117.443 21.6C117.469 21.6267 117.483 21.72 117.483 21.88C117.349 24.5467 117.283 26.1733 117.283 26.76C117.283 26.8133 117.203 26.84 117.043 26.84C116.909 26.84 116.829 26.8133 116.803 26.76C116.483 25.5333 115.949 24.5067 115.203 23.68C114.483 22.8533 113.736 22.44 112.963 22.44C112.536 22.44 112.243 22.6133 112.083 22.96C111.949 23.3067 111.883 23.9467 111.883 24.88V33.76C111.883 34.56 111.936 35.16 112.043 35.56C112.149 35.9333 112.349 36.1867 112.643 36.32C112.963 36.4533 113.429 36.52 114.043 36.52C114.123 36.52 114.163 36.6 114.163 36.76C114.163 36.92 114.123 37 114.043 37C113.296 37 112.723 36.9867 112.323 36.96L110.083 36.92L107.763 36.96C107.336 36.9867 106.736 37 105.963 37ZM147.237 36.52C147.317 36.52 147.357 36.6 147.357 36.76C147.357 36.92 147.317 37 147.237 37C146.33 37 145.61 36.9867 145.077 36.96L142.157 36.92L138.837 36.96C138.277 36.9867 137.53 37 136.597 37C136.517 37 136.477 36.92 136.477 36.76C136.477 36.6 136.517 36.52 136.597 36.52C137.503 36.52 138.17 36.4533 138.597 36.32C139.023 36.1867 139.303 35.9333 139.437 35.56C139.597 35.16 139.677 34.56 139.677 33.76V15.72C139.677 14.8133 139.637 14.2133 139.557 13.92C139.503 13.6267 139.357 13.44 139.117 13.36C138.877 13.28 138.397 13.24 137.677 13.24H129.477C128.677 13.24 128.143 13.28 127.877 13.36C127.61 13.44 127.437 13.6267 127.357 13.92C127.303 14.2133 127.277 14.8133 127.277 15.72V33.76C127.277 34.5867 127.343 35.1867 127.477 35.56C127.637 35.9333 127.917 36.1867 128.317 36.32C128.743 36.4533 129.423 36.52 130.357 36.52C130.437 36.52 130.477 36.6 130.477 36.76C130.477 36.92 130.437 37 130.357 37C129.423 37 128.677 36.9867 128.117 36.96L124.797 36.92L121.837 36.96C121.303 36.9867 120.583 37 119.677 37C119.623 37 119.597 36.92 119.597 36.76C119.597 36.6 119.623 36.52 119.677 36.52C120.61 36.52 121.29 36.4533 121.717 36.32C122.143 36.1867 122.437 35.9333 122.597 35.56C122.757 35.16 122.837 34.56 122.837 33.76V15.72C122.837 14.52 122.637 13.68 122.237 13.2C121.837 12.72 121.01 12.48 119.757 12.48C119.677 12.48 119.637 12.4 119.637 12.24C119.637 12.08 119.677 12 119.757 12C120.663 12 121.543 12.0133 122.397 12.04C125.97 12.0933 129.717 12.12 133.637 12.12C137.183 12.12 141.277 12.08 145.917 12H147.237C147.317 12 147.357 12.08 147.357 12.24C147.357 12.4 147.317 12.48 147.237 12.48C145.983 12.48 145.143 12.72 144.717 13.2C144.317 13.68 144.117 14.52 144.117 15.72V33.76C144.117 34.56 144.197 35.16 144.357 35.56C144.517 35.9333 144.81 36.1867 145.237 36.32C145.663 36.4533 146.33 36.52 147.237 36.52ZM158.676 37.52C157.369 37.52 156.222 37.3733 155.236 37.08V44.76C155.236 45.56 155.316 46.1467 155.476 46.52C155.662 46.8933 155.996 47.1467 156.476 47.28C156.982 47.44 157.756 47.52 158.796 47.52C158.876 47.52 158.916 47.6 158.916 47.76C158.916 47.92 158.876 48 158.796 48C157.809 48 157.036 47.9867 156.476 47.96L153.316 47.92L150.956 47.96C150.556 47.9867 149.996 48 149.276 48C149.196 48 149.156 47.92 149.156 47.76C149.156 47.6 149.196 47.52 149.276 47.52C149.916 47.52 150.382 47.44 150.676 47.28C150.996 47.1467 151.209 46.88 151.316 46.48C151.449 46.1067 151.516 45.5333 151.516 44.76V24.8C151.516 23.68 151.316 22.9467 150.916 22.6C150.542 22.2267 149.862 22.04 148.876 22.04C148.822 22.04 148.796 21.96 148.796 21.8C148.796 21.64 148.822 21.56 148.876 21.56H154.356C154.729 21.56 154.969 21.6267 155.076 21.76C155.182 21.8933 155.236 22.1333 155.236 22.48V23.64C157.156 21.9067 159.129 21.04 161.156 21.04C162.276 21.04 163.316 21.3333 164.276 21.92C165.262 22.5067 166.049 23.36 166.636 24.48C167.222 25.6 167.516 26.9067 167.516 28.4C167.516 30.5333 167.076 32.2933 166.196 33.68C165.316 35.04 164.196 36.0267 162.836 36.64C161.502 37.2267 160.116 37.52 158.676 37.52ZM158.516 23.28C157.316 23.28 156.222 23.7067 155.236 24.56V34.52C155.822 35.1867 156.436 35.6933 157.076 36.04C157.716 36.36 158.502 36.52 159.436 36.52C162.129 36.52 163.476 34.2267 163.476 29.64C163.476 27.6133 162.996 26.0533 162.036 24.96C161.102 23.84 159.929 23.28 158.516 23.28ZM178.23 37.52C176.577 37.52 175.123 37.1467 173.87 36.4C172.643 35.6267 171.697 34.6 171.03 33.32C170.363 32.0133 170.03 30.6 170.03 29.08C170.03 27.3467 170.47 25.88 171.35 24.68C172.23 23.4533 173.35 22.5467 174.71 21.96C176.07 21.3467 177.47 21.04 178.91 21.04C180.563 21.04 182.003 21.4267 183.23 22.2C184.457 22.9733 185.39 24 186.03 25.28C186.697 26.5333 187.03 27.88 187.03 29.32C187.03 30.92 186.63 32.3467 185.83 33.6C185.03 34.8267 183.95 35.7867 182.59 36.48C181.257 37.1733 179.803 37.52 178.23 37.52ZM179.43 36.68C180.47 36.68 181.257 36.1733 181.79 35.16C182.35 34.12 182.63 32.64 182.63 30.72C182.63 28.8533 182.39 27.2533 181.91 25.92C181.43 24.5867 180.803 23.5867 180.03 22.92C179.257 22.2267 178.43 21.88 177.55 21.88C175.417 21.88 174.35 23.7867 174.35 27.6C174.35 29.3867 174.577 30.9733 175.03 32.36C175.483 33.72 176.097 34.7867 176.87 35.56C177.643 36.3067 178.497 36.68 179.43 36.68Z" fill="white"/>
<path d="M11.664 65.712C11.696 65.712 11.712 65.76 11.712 65.856C11.712 65.952 11.696 66 11.664 66C11.248 66 10.92 65.992 10.68 65.976L9.456 65.952L8.136 65.976C7.896 65.992 7.576 66 7.176 66C7.128 66 7.104 65.952 7.104 65.856C7.104 65.76 7.128 65.712 7.176 65.712C7.624 65.712 7.944 65.672 8.136 65.592C8.344 65.512 8.488 65.36 8.568 65.136C8.648 64.896 8.688 64.536 8.688 64.056V58.608L2.544 66.168C2.448 66.216 2.392 66.24 2.376 66.24C2.312 66.24 2.248 66.224 2.184 66.192C2.12 66.176 2.088 66.152 2.088 66.12V58.68C2.088 58.2 2.048 57.848 1.968 57.624C1.904 57.384 1.768 57.224 1.56 57.144C1.368 57.064 1.056 57.024 0.624 57.024C0.592 57.024 0.576 56.976 0.576 56.88C0.576 56.784 0.592 56.736 0.624 56.736C1.008 56.736 1.304 56.744 1.512 56.76L2.808 56.784L4.32 56.76C4.512 56.744 4.776 56.736 5.112 56.736C5.16 56.736 5.184 56.784 5.184 56.88C5.184 56.976 5.16 57.024 5.112 57.024C4.664 57.024 4.336 57.064 4.128 57.144C3.936 57.224 3.8 57.384 3.72 57.624C3.64 57.848 3.6 58.2 3.6 58.68V64.104L9.72 56.592C9.768 56.544 9.832 56.52 9.912 56.52C10.088 56.52 10.176 56.56 10.176 56.64V64.056C10.176 64.536 10.208 64.896 10.272 65.136C10.352 65.36 10.496 65.512 10.704 65.592C10.912 65.672 11.232 65.712 11.664 65.712ZM23.9933 65.712C24.0253 65.712 24.0413 65.76 24.0413 65.856C24.0413 65.952 24.0253 66 23.9933 66C23.5773 66 23.2493 65.992 23.0093 65.976L21.7853 65.952L20.4653 65.976C20.2253 65.992 19.9053 66 19.5053 66C19.4573 66 19.4333 65.952 19.4333 65.856C19.4333 65.76 19.4573 65.712 19.5053 65.712C19.9373 65.712 20.2573 65.672 20.4653 65.592C20.6733 65.512 20.8093 65.36 20.8733 65.136C20.9533 64.896 20.9933 64.536 20.9933 64.056V61.608H16.0493V64.056C16.0493 64.536 16.0813 64.896 16.1453 65.136C16.2253 65.36 16.3693 65.512 16.5773 65.592C16.7853 65.672 17.1053 65.712 17.5373 65.712C17.5693 65.712 17.5853 65.76 17.5853 65.856C17.5853 65.952 17.5693 66 17.5373 66C17.1213 66 16.7933 65.992 16.5533 65.976L15.3293 65.952L14.0333 65.976C13.7933 65.992 13.4653 66 13.0493 66C13.0013 66 12.9773 65.952 12.9773 65.856C12.9773 65.76 13.0013 65.712 13.0493 65.712C13.4813 65.712 13.8013 65.672 14.0093 65.592C14.2173 65.512 14.3533 65.36 14.4173 65.136C14.4973 64.896 14.5373 64.536 14.5373 64.056V58.68C14.5373 58.2 14.4973 57.848 14.4173 57.624C14.3533 57.384 14.2173 57.224 14.0093 57.144C13.8173 57.064 13.5053 57.024 13.0732 57.024C13.0253 57.024 13.0013 56.976 13.0013 56.88C13.0013 56.784 13.0253 56.736 13.0732 56.736C13.4733 56.736 13.7853 56.744 14.0093 56.76L15.3293 56.784L16.5773 56.76C16.8173 56.744 17.1373 56.736 17.5373 56.736C17.5693 56.736 17.5853 56.784 17.5853 56.88C17.5853 56.976 17.5693 57.024 17.5373 57.024C17.1053 57.024 16.7853 57.072 16.5773 57.168C16.3693 57.264 16.2253 57.432 16.1453 57.672C16.0813 57.896 16.0493 58.248 16.0493 58.728V61.128H20.9933V58.68C20.9933 58.2 20.9533 57.848 20.8733 57.624C20.8093 57.384 20.6733 57.224 20.4653 57.144C20.2733 57.064 19.9613 57.024 19.5293 57.024C19.4813 57.024 19.4573 56.976 19.4573 56.88C19.4573 56.784 19.4813 56.736 19.5293 56.736C19.9293 56.736 20.2413 56.744 20.4653 56.76L21.7853 56.784L23.0333 56.76C23.2733 56.744 23.5933 56.736 23.9933 56.736C24.0253 56.736 24.0413 56.784 24.0413 56.88C24.0413 56.976 24.0253 57.024 23.9933 57.024C23.5613 57.024 23.2413 57.072 23.0333 57.168C22.8253 57.264 22.6813 57.432 22.6013 57.672C22.5373 57.896 22.5053 58.248 22.5053 58.728V64.056C22.5053 64.536 22.5373 64.896 22.6013 65.136C22.6813 65.36 22.8253 65.512 23.0333 65.592C23.2413 65.672 23.5613 65.712 23.9933 65.712ZM27.6066 66C27.5586 66 27.5346 65.952 27.5346 65.856C27.5346 65.76 27.5586 65.712 27.6066 65.712C28.0546 65.712 28.3746 65.672 28.5666 65.592C28.7746 65.512 28.9186 65.36 28.9986 65.136C29.0786 64.896 29.1186 64.536 29.1186 64.056V58.728C29.1186 58.072 29.0466 57.64 28.9026 57.432C28.7746 57.224 28.4866 57.12 28.0386 57.12C27.3666 57.12 26.8546 57.344 26.5026 57.792C26.1506 58.24 25.9426 58.928 25.8786 59.856C25.8786 59.888 25.8306 59.904 25.7346 59.904C25.6546 59.904 25.6146 59.888 25.6146 59.856L25.5666 58.416C25.5506 58.24 25.5346 58.032 25.5186 57.792C25.5026 57.536 25.4946 57.248 25.4946 56.928C25.4946 56.832 25.5026 56.776 25.5186 56.76C25.5346 56.728 25.5906 56.712 25.6866 56.712C26.0226 56.712 26.3186 56.72 26.5746 56.736L29.8146 56.76L33.1026 56.736C33.3746 56.72 33.6866 56.712 34.0386 56.712C34.1346 56.712 34.1906 56.728 34.2066 56.76C34.2226 56.776 34.2306 56.832 34.2306 56.928C34.2306 57.2 34.2146 57.656 34.1826 58.296L34.1346 59.856C34.1346 59.888 34.0866 59.904 33.9906 59.904C33.8946 59.904 33.8466 59.888 33.8466 59.856C33.7666 58.912 33.5506 58.224 33.1986 57.792C32.8626 57.344 32.3586 57.12 31.6866 57.12C31.2546 57.12 30.9666 57.232 30.8226 57.456C30.6946 57.664 30.6306 58.088 30.6306 58.728V64.056C30.6306 64.536 30.6626 64.896 30.7266 65.136C30.8066 65.36 30.9426 65.512 31.1346 65.592C31.3426 65.672 31.6626 65.712 32.0946 65.712C32.1426 65.712 32.1666 65.76 32.1666 65.856C32.1666 65.952 32.1426 66 32.0946 66C31.6786 66 31.3506 65.992 31.1106 65.976L29.8866 65.952L28.6146 65.976C28.3746 65.992 28.0386 66 27.6066 66ZM43.7282 64.608C43.7762 64.608 43.8162 64.64 43.8482 64.704C43.8962 64.752 43.9042 64.8 43.8722 64.848C42.8002 65.808 41.6162 66.288 40.3202 66.288C39.3762 66.288 38.5682 66.08 37.8962 65.664C37.2242 65.232 36.7122 64.664 36.3602 63.96C36.0082 63.24 35.8322 62.472 35.8322 61.656C35.8322 60.712 36.0562 59.848 36.5042 59.064C36.9682 58.28 37.5922 57.664 38.3762 57.216C39.1602 56.752 40.0242 56.52 40.9682 56.52C41.8962 56.52 42.6002 56.76 43.0802 57.24C43.5762 57.704 43.8242 58.376 43.8242 59.256C43.8242 59.688 43.7282 59.904 43.5362 59.904L37.6082 59.928C37.5762 60.28 37.5602 60.552 37.5602 60.744C37.5602 62.136 37.8882 63.256 38.5442 64.104C39.2002 64.952 40.1282 65.376 41.3282 65.376C41.8082 65.376 42.2082 65.32 42.5282 65.208C42.8642 65.08 43.2562 64.88 43.7042 64.608H43.7282ZM40.1522 57C39.4802 57 38.9282 57.232 38.4962 57.696C38.0642 58.144 37.7842 58.776 37.6562 59.592L42.0242 59.496C42.0242 58.68 41.8562 58.064 41.5202 57.648C41.2002 57.216 40.7442 57 40.1522 57ZM52.3485 56.424C53.0205 56.424 53.6365 56.6 54.1965 56.952C54.7565 57.304 55.2045 57.816 55.5405 58.488C55.8765 59.144 56.0445 59.928 56.0445 60.84C56.0445 62.056 55.7725 63.08 55.2285 63.912C54.7005 64.728 54.0365 65.336 53.2365 65.736C52.4365 66.12 51.6445 66.312 50.8605 66.312C50.3805 66.312 49.9485 66.272 49.5645 66.192C49.1805 66.112 48.7965 65.968 48.4125 65.76V70.656C48.4125 71.136 48.4685 71.488 48.5805 71.712C48.7085 71.936 48.9325 72.088 49.2525 72.168C49.5725 72.264 50.0765 72.312 50.7645 72.312C50.8125 72.312 50.8365 72.36 50.8365 72.456C50.8365 72.552 50.8125 72.6 50.7645 72.6C50.2045 72.6 49.7645 72.592 49.4445 72.576L47.6685 72.552L46.2285 72.576C45.9885 72.592 45.6525 72.6 45.2205 72.6C45.1885 72.6 45.1725 72.552 45.1725 72.456C45.1725 72.36 45.1885 72.312 45.2205 72.312C45.7005 72.312 46.0525 72.264 46.2765 72.168C46.5165 72.088 46.6765 71.936 46.7565 71.712C46.8525 71.488 46.9005 71.136 46.9005 70.656V58.68C46.9005 58.008 46.7645 57.568 46.4925 57.36C46.2365 57.136 45.7245 57.024 44.9565 57.024C44.9245 57.024 44.9085 56.976 44.9085 56.88C44.9085 56.784 44.9245 56.736 44.9565 56.736H47.9325C48.1245 56.736 48.2525 56.784 48.3165 56.88C48.3805 56.96 48.4125 57.12 48.4125 57.36V58.392C49.0845 57.72 49.7405 57.224 50.3805 56.904C51.0205 56.584 51.6765 56.424 52.3485 56.424ZM51.5325 65.784C52.3805 65.784 53.0605 65.416 53.5725 64.68C54.1005 63.944 54.3645 62.912 54.3645 61.584C54.3645 60.272 54.0685 59.248 53.4765 58.512C52.8845 57.776 52.1405 57.408 51.2445 57.408C50.7005 57.408 50.2045 57.536 49.7565 57.792C49.3085 58.032 48.8605 58.384 48.4125 58.848V64.32C48.8285 64.8 49.2765 65.168 49.7565 65.424C50.2365 65.664 50.8285 65.784 51.5325 65.784ZM63.0737 60.552C65.2497 60.552 66.3377 61.384 66.3377 63.048C66.3377 63.928 66.0177 64.648 65.3777 65.208C64.7537 65.768 63.9457 66.048 62.9537 66.048L61.6097 66C60.8417 65.968 60.2977 65.952 59.9777 65.952L58.6817 65.976C58.4417 65.992 58.1137 66 57.6977 66C57.6497 66 57.6257 65.952 57.6257 65.856C57.6257 65.76 57.6497 65.712 57.6977 65.712C58.1297 65.712 58.4497 65.672 58.6577 65.592C58.8657 65.512 59.0017 65.36 59.0657 65.136C59.1457 64.896 59.1857 64.536 59.1857 64.056V58.68C59.1857 58.2 59.1457 57.848 59.0657 57.624C59.0017 57.384 58.8657 57.224 58.6577 57.144C58.4657 57.064 58.1537 57.024 57.7217 57.024C57.6737 57.024 57.6497 56.976 57.6497 56.88C57.6497 56.784 57.6737 56.736 57.7217 56.736C58.1217 56.736 58.4337 56.744 58.6577 56.76L59.9777 56.784L61.3937 56.76C61.6497 56.744 62.0017 56.736 62.4497 56.736C62.4977 56.736 62.5217 56.784 62.5217 56.88C62.5217 56.976 62.4977 57.024 62.4497 57.024C61.9377 57.024 61.5617 57.072 61.3217 57.168C61.0817 57.264 60.9137 57.432 60.8177 57.672C60.7377 57.896 60.6977 58.248 60.6977 58.728V60.888C61.3857 60.664 62.1777 60.552 63.0737 60.552ZM62.4977 65.688C63.9377 65.688 64.6577 64.992 64.6577 63.6C64.6577 62.784 64.4577 62.152 64.0577 61.704C63.6737 61.24 63.0657 61.008 62.2337 61.008C61.6577 61.008 61.1457 61.08 60.6977 61.224V64.056C60.6977 64.648 60.8177 65.072 61.0577 65.328C61.3137 65.568 61.7937 65.688 62.4977 65.688ZM75.6266 64.608C75.6746 64.608 75.7146 64.64 75.7466 64.704C75.7946 64.752 75.8026 64.8 75.7706 64.848C74.6986 65.808 73.5146 66.288 72.2186 66.288C71.2746 66.288 70.4666 66.08 69.7946 65.664C69.1226 65.232 68.6106 64.664 68.2586 63.96C67.9066 63.24 67.7306 62.472 67.7306 61.656C67.7306 60.712 67.9546 59.848 68.4026 59.064C68.8666 58.28 69.4906 57.664 70.2746 57.216C71.0586 56.752 71.9226 56.52 72.8666 56.52C73.7946 56.52 74.4986 56.76 74.9786 57.24C75.4746 57.704 75.7226 58.376 75.7226 59.256C75.7226 59.688 75.6266 59.904 75.4346 59.904L69.5066 59.928C69.4746 60.28 69.4586 60.552 69.4586 60.744C69.4586 62.136 69.7866 63.256 70.4426 64.104C71.0986 64.952 72.0266 65.376 73.2266 65.376C73.7066 65.376 74.1066 65.32 74.4266 65.208C74.7626 65.08 75.1546 64.88 75.6026 64.608H75.6266ZM72.0506 57C71.3786 57 70.8266 57.232 70.3946 57.696C69.9626 58.144 69.6826 58.776 69.5546 59.592L73.9226 59.496C73.9226 58.68 73.7546 58.064 73.4186 57.648C73.0986 57.216 72.6426 57 72.0506 57ZM84.2469 56.424C84.9189 56.424 85.5349 56.6 86.0949 56.952C86.6549 57.304 87.1029 57.816 87.4389 58.488C87.7749 59.144 87.9429 59.928 87.9429 60.84C87.9429 62.056 87.6709 63.08 87.1269 63.912C86.5989 64.728 85.9349 65.336 85.1349 65.736C84.3349 66.12 83.5429 66.312 82.7589 66.312C82.2789 66.312 81.8469 66.272 81.4629 66.192C81.0789 66.112 80.6949 65.968 80.3109 65.76V70.656C80.3109 71.136 80.3669 71.488 80.4789 71.712C80.6069 71.936 80.8309 72.088 81.1509 72.168C81.4709 72.264 81.9749 72.312 82.6629 72.312C82.7109 72.312 82.7349 72.36 82.7349 72.456C82.7349 72.552 82.7109 72.6 82.6629 72.6C82.1029 72.6 81.6629 72.592 81.3429 72.576L79.5669 72.552L78.1269 72.576C77.8869 72.592 77.5509 72.6 77.1189 72.6C77.0869 72.6 77.0709 72.552 77.0709 72.456C77.0709 72.36 77.0869 72.312 77.1189 72.312C77.5989 72.312 77.9509 72.264 78.1749 72.168C78.4149 72.088 78.5749 71.936 78.6549 71.712C78.7509 71.488 78.7989 71.136 78.7989 70.656V58.68C78.7989 58.008 78.6629 57.568 78.3909 57.36C78.1349 57.136 77.6229 57.024 76.8549 57.024C76.8229 57.024 76.8069 56.976 76.8069 56.88C76.8069 56.784 76.8229 56.736 76.8549 56.736H79.8309C80.0229 56.736 80.1509 56.784 80.2149 56.88C80.2789 56.96 80.3109 57.12 80.3109 57.36V58.392C80.9829 57.72 81.6389 57.224 82.2789 56.904C82.9189 56.584 83.5749 56.424 84.2469 56.424ZM83.4309 65.784C84.2789 65.784 84.9589 65.416 85.4709 64.68C85.9989 63.944 86.2629 62.912 86.2629 61.584C86.2629 60.272 85.9669 59.248 85.3749 58.512C84.7829 57.776 84.0389 57.408 83.1429 57.408C82.5989 57.408 82.1029 57.536 81.6549 57.792C81.2069 58.032 80.7589 58.384 80.3109 58.848V64.32C80.7269 64.8 81.1749 65.168 81.6549 65.424C82.1349 65.664 82.7269 65.784 83.4309 65.784ZM100.54 65.712C100.572 65.712 100.588 65.76 100.588 65.856C100.588 65.952 100.572 66 100.54 66C100.124 66 99.7961 65.992 99.5561 65.976L98.3321 65.952L97.0121 65.976C96.7721 65.992 96.4521 66 96.0521 66C96.0041 66 95.9801 65.952 95.9801 65.856C95.9801 65.76 96.0041 65.712 96.0521 65.712C96.4841 65.712 96.8041 65.672 97.0121 65.592C97.2201 65.512 97.3561 65.36 97.4201 65.136C97.5001 64.896 97.5401 64.536 97.5401 64.056V61.608H92.5961V64.056C92.5961 64.536 92.6281 64.896 92.6921 65.136C92.7721 65.36 92.9161 65.512 93.1241 65.592C93.3321 65.672 93.6521 65.712 94.0841 65.712C94.1161 65.712 94.1321 65.76 94.1321 65.856C94.1321 65.952 94.1161 66 94.0841 66C93.6681 66 93.3401 65.992 93.1001 65.976L91.8761 65.952L90.5801 65.976C90.3401 65.992 90.0121 66 89.5961 66C89.5481 66 89.5241 65.952 89.5241 65.856C89.5241 65.76 89.5481 65.712 89.5961 65.712C90.0281 65.712 90.3481 65.672 90.5561 65.592C90.7641 65.512 90.9001 65.36 90.9641 65.136C91.0441 64.896 91.0841 64.536 91.0841 64.056V58.68C91.0841 58.2 91.0441 57.848 90.9641 57.624C90.9001 57.384 90.7641 57.224 90.5561 57.144C90.3641 57.064 90.0521 57.024 89.6201 57.024C89.5721 57.024 89.5481 56.976 89.5481 56.88C89.5481 56.784 89.5721 56.736 89.6201 56.736C90.0201 56.736 90.3321 56.744 90.5561 56.76L91.8761 56.784L93.1241 56.76C93.3641 56.744 93.6841 56.736 94.0841 56.736C94.1161 56.736 94.1321 56.784 94.1321 56.88C94.1321 56.976 94.1161 57.024 94.0841 57.024C93.6521 57.024 93.3321 57.072 93.1241 57.168C92.9161 57.264 92.7721 57.432 92.6921 57.672C92.6281 57.896 92.5961 58.248 92.5961 58.728V61.128H97.5401V58.68C97.5401 58.2 97.5001 57.848 97.4201 57.624C97.3561 57.384 97.2201 57.224 97.0121 57.144C96.8201 57.064 96.5081 57.024 96.0761 57.024C96.0281 57.024 96.0041 56.976 96.0041 56.88C96.0041 56.784 96.0281 56.736 96.0761 56.736C96.4761 56.736 96.7881 56.744 97.0121 56.76L98.3321 56.784L99.5801 56.76C99.8201 56.744 100.14 56.736 100.54 56.736C100.572 56.736 100.588 56.784 100.588 56.88C100.588 56.976 100.572 57.024 100.54 57.024C100.108 57.024 99.7881 57.072 99.5801 57.168C99.3721 57.264 99.2281 57.432 99.1481 57.672C99.0841 57.896 99.0521 58.248 99.0521 58.728V64.056C99.0521 64.536 99.0841 64.896 99.1481 65.136C99.2281 65.36 99.3721 65.512 99.5801 65.592C99.7881 65.672 100.108 65.712 100.54 65.712ZM107.417 60.552C109.593 60.552 110.681 61.384 110.681 63.048C110.681 63.928 110.361 64.648 109.721 65.208C109.097 65.768 108.289 66.048 107.297 66.048L105.953 66C105.185 65.968 104.641 65.952 104.321 65.952L103.025 65.976C102.785 65.992 102.457 66 102.041 66C101.993 66 101.969 65.952 101.969 65.856C101.969 65.76 101.993 65.712 102.041 65.712C102.473 65.712 102.793 65.672 103.001 65.592C103.209 65.512 103.345 65.36 103.409 65.136C103.489 64.896 103.529 64.536 103.529 64.056V58.68C103.529 58.2 103.489 57.848 103.409 57.624C103.345 57.384 103.209 57.224 103.001 57.144C102.809 57.064 102.497 57.024 102.065 57.024C102.017 57.024 101.993 56.976 101.993 56.88C101.993 56.784 102.017 56.736 102.065 56.736C102.465 56.736 102.777 56.744 103.001 56.76L104.321 56.784L105.737 56.76C105.993 56.744 106.345 56.736 106.793 56.736C106.841 56.736 106.865 56.784 106.865 56.88C106.865 56.976 106.841 57.024 106.793 57.024C106.281 57.024 105.905 57.072 105.665 57.168C105.425 57.264 105.257 57.432 105.161 57.672C105.081 57.896 105.041 58.248 105.041 58.728V60.888C105.729 60.664 106.521 60.552 107.417 60.552ZM115.961 65.712C115.993 65.712 116.009 65.76 116.009 65.856C116.009 65.952 115.993 66 115.961 66C115.545 66 115.217 65.992 114.977 65.976L113.777 65.952L112.481 65.976C112.241 65.992 111.905 66 111.473 66C111.425 66 111.401 65.952 111.401 65.856C111.401 65.76 111.425 65.712 111.473 65.712C111.921 65.712 112.249 65.672 112.457 65.592C112.665 65.512 112.801 65.36 112.865 65.136C112.945 64.896 112.985 64.536 112.985 64.056V58.68C112.985 58.2 112.945 57.848 112.865 57.624C112.801 57.384 112.665 57.224 112.457 57.144C112.249 57.064 111.929 57.024 111.497 57.024C111.449 57.024 111.425 56.976 111.425 56.88C111.425 56.784 111.449 56.736 111.497 56.736C111.913 56.736 112.241 56.744 112.481 56.76L113.777 56.784L115.001 56.76C115.241 56.744 115.561 56.736 115.961 56.736C115.993 56.736 116.009 56.784 116.009 56.88C116.009 56.976 115.993 57.024 115.961 57.024C115.529 57.024 115.209 57.072 115.001 57.168C114.809 57.264 114.673 57.432 114.593 57.672C114.529 57.896 114.497 58.248 114.497 58.728V64.056C114.497 64.552 114.529 64.912 114.593 65.136C114.673 65.36 114.809 65.512 115.001 65.592C115.209 65.672 115.529 65.712 115.961 65.712ZM106.841 65.688C108.281 65.688 109.001 64.992 109.001 63.6C109.001 62.784 108.801 62.152 108.401 61.704C108.017 61.24 107.409 61.008 106.577 61.008C106.001 61.008 105.489 61.08 105.041 61.224V64.056C105.041 64.648 105.161 65.072 105.401 65.328C105.657 65.568 106.137 65.688 106.841 65.688ZM122.935 54.816C122.391 54.816 121.871 54.712 121.375 54.504C120.879 54.296 120.479 54.024 120.175 53.688C119.887 53.352 119.743 52.992 119.743 52.608C119.743 52.384 119.807 52.208 119.935 52.08C120.063 51.936 120.247 51.864 120.487 51.864C120.807 51.864 121.023 51.96 121.135 52.152C121.263 52.344 121.383 52.656 121.495 53.088C121.591 53.552 121.727 53.904 121.903 54.144C122.079 54.384 122.415 54.504 122.911 54.504C123.391 54.504 123.735 54.376 123.943 54.12C124.151 53.864 124.303 53.512 124.399 53.064C124.495 52.664 124.599 52.368 124.711 52.176C124.839 51.968 125.055 51.864 125.359 51.864C125.871 51.864 126.127 52.12 126.127 52.632C126.127 53.016 125.975 53.376 125.671 53.712C125.367 54.048 124.967 54.32 124.471 54.528C123.991 54.72 123.479 54.816 122.935 54.816ZM128.383 65.712C128.415 65.712 128.431 65.76 128.431 65.856C128.431 65.952 128.415 66 128.383 66C127.967 66 127.639 65.992 127.399 65.976L126.175 65.952L124.855 65.976C124.615 65.992 124.295 66 123.895 66C123.847 66 123.823 65.952 123.823 65.856C123.823 65.76 123.847 65.712 123.895 65.712C124.343 65.712 124.663 65.672 124.855 65.592C125.063 65.512 125.207 65.36 125.287 65.136C125.367 64.896 125.407 64.536 125.407 64.056V58.608L119.263 66.168C119.167 66.216 119.111 66.24 119.095 66.24C119.031 66.24 118.967 66.224 118.903 66.192C118.839 66.176 118.807 66.152 118.807 66.12V58.68C118.807 58.2 118.767 57.848 118.687 57.624C118.623 57.384 118.487 57.224 118.279 57.144C118.087 57.064 117.775 57.024 117.343 57.024C117.311 57.024 117.295 56.976 117.295 56.88C117.295 56.784 117.311 56.736 117.343 56.736C117.727 56.736 118.023 56.744 118.231 56.76L119.527 56.784L121.039 56.76C121.231 56.744 121.495 56.736 121.831 56.736C121.879 56.736 121.903 56.784 121.903 56.88C121.903 56.976 121.879 57.024 121.831 57.024C121.383 57.024 121.055 57.064 120.847 57.144C120.655 57.224 120.519 57.384 120.439 57.624C120.359 57.848 120.319 58.2 120.319 58.68V64.104L126.439 56.592C126.487 56.544 126.551 56.52 126.631 56.52C126.807 56.52 126.895 56.56 126.895 56.64V64.056C126.895 64.536 126.927 64.896 126.991 65.136C127.071 65.36 127.215 65.512 127.423 65.592C127.631 65.672 127.951 65.712 128.383 65.712ZM140.169 66.288C139.129 66.288 138.257 66.064 137.553 65.616C136.849 65.152 136.321 64.56 135.969 63.84C135.633 63.12 135.465 62.36 135.465 61.56C135.465 60.536 135.729 59.648 136.257 58.896C136.785 58.128 137.457 57.544 138.273 57.144C139.089 56.728 139.929 56.52 140.793 56.52C141.513 56.52 142.161 56.664 142.737 56.952C143.329 57.24 143.625 57.6 143.625 58.032C143.625 58.272 143.537 58.472 143.361 58.632C143.201 58.792 142.985 58.872 142.713 58.872C142.201 58.872 141.817 58.584 141.561 58.008C141.385 57.656 141.177 57.4 140.937 57.24C140.713 57.08 140.385 57 139.953 57C139.089 57 138.417 57.352 137.937 58.056C137.457 58.744 137.217 59.664 137.217 60.816C137.217 62.16 137.545 63.264 138.201 64.128C138.857 64.976 139.857 65.4 141.201 65.4C142.113 65.4 142.913 65.144 143.601 64.632H143.649C143.697 64.632 143.737 64.656 143.769 64.704C143.817 64.752 143.817 64.792 143.769 64.824C143.209 65.336 142.641 65.712 142.065 65.952C141.505 66.176 140.873 66.288 140.169 66.288ZM154.406 64.704C154.47 64.704 154.51 64.744 154.526 64.824C154.542 64.888 154.518 64.936 154.454 64.968L151.982 66.144C151.918 66.176 151.846 66.192 151.766 66.192C151.558 66.192 151.366 66.056 151.19 65.784C151.03 65.496 150.918 65.112 150.854 64.632L149.654 65.424C149.27 65.696 148.918 65.888 148.598 66C148.294 66.112 147.966 66.168 147.614 66.168C147.006 66.168 146.534 66.016 146.198 65.712C145.862 65.392 145.694 64.992 145.694 64.512C145.694 64 145.894 63.576 146.294 63.24C146.71 62.888 147.366 62.544 148.262 62.208L150.83 61.272V59.688C150.83 58.728 150.702 58.032 150.446 57.6C150.206 57.168 149.846 56.952 149.366 56.952C148.838 56.952 148.438 57.136 148.166 57.504C147.894 57.872 147.718 58.288 147.638 58.752C147.542 59.456 147.214 59.808 146.654 59.808C146.366 59.808 146.15 59.736 146.006 59.592C145.862 59.448 145.79 59.272 145.79 59.064C145.79 58.664 146.038 58.264 146.534 57.864C147.046 57.464 147.654 57.136 148.358 56.88C149.078 56.624 149.71 56.496 150.254 56.496C150.91 56.496 151.414 56.712 151.766 57.144C152.134 57.56 152.318 58.168 152.318 58.968V63.408C152.318 63.952 152.39 64.352 152.534 64.608C152.694 64.864 152.934 64.992 153.254 64.992C153.542 64.992 153.91 64.896 154.358 64.704H154.406ZM150.83 64.272V64.128V61.608L148.814 62.424C148.382 62.584 148.054 62.784 147.83 63.024C147.606 63.248 147.494 63.536 147.494 63.888C147.494 64.272 147.614 64.592 147.854 64.848C148.11 65.088 148.43 65.208 148.814 65.208C149.134 65.208 149.494 65.088 149.894 64.848L150.83 64.272ZM165.509 65.712C165.589 65.712 165.629 65.76 165.629 65.856C165.629 65.952 165.589 66 165.509 66C165.237 66 164.845 65.984 164.333 65.952C163.789 65.92 163.389 65.904 163.133 65.904C162.909 65.904 162.573 65.92 162.125 65.952C161.645 65.984 161.301 66 161.093 66C161.029 66 160.997 65.952 160.997 65.856C160.997 65.76 161.029 65.712 161.093 65.712C161.749 65.712 162.077 65.472 162.077 64.992C162.077 64.72 161.973 64.384 161.765 63.984L159.317 58.776L157.493 63.048C157.205 63.72 157.061 64.264 157.061 64.68C157.061 65.368 157.445 65.712 158.213 65.712C158.293 65.712 158.333 65.76 158.333 65.856C158.333 65.952 158.293 66 158.213 66C158.037 66 157.789 65.984 157.469 65.952C157.149 65.92 156.845 65.904 156.557 65.904C156.221 65.904 155.893 65.92 155.573 65.952C155.285 65.984 155.029 66 154.805 66C154.725 66 154.685 65.952 154.685 65.856C154.685 65.76 154.725 65.712 154.805 65.712C155.093 65.712 155.397 65.512 155.717 65.112C156.053 64.696 156.461 63.936 156.941 62.832L159.725 56.376C159.757 56.312 159.805 56.28 159.869 56.28C159.933 56.28 159.981 56.312 160.013 56.376L162.989 62.712C163.421 63.64 163.741 64.296 163.949 64.68C164.173 65.064 164.397 65.336 164.621 65.496C164.845 65.64 165.141 65.712 165.509 65.712ZM170.662 66.312C169.718 66.312 168.886 66.088 168.166 65.64C167.462 65.176 166.91 64.56 166.51 63.792C166.126 63.008 165.934 62.16 165.934 61.248C165.934 60.208 166.19 59.328 166.702 58.608C167.214 57.872 167.862 57.328 168.646 56.976C169.446 56.608 170.262 56.424 171.094 56.424C172.038 56.424 172.862 56.656 173.566 57.12C174.286 57.584 174.838 58.2 175.222 58.968C175.606 59.72 175.798 60.52 175.798 61.368C175.798 62.36 175.566 63.232 175.102 63.984C174.638 64.72 174.014 65.296 173.23 65.712C172.446 66.112 171.59 66.312 170.662 66.312ZM171.358 65.856C172.19 65.856 172.83 65.544 173.278 64.92C173.742 64.296 173.974 63.344 173.974 62.064C173.974 61.056 173.814 60.16 173.494 59.376C173.174 58.592 172.734 57.984 172.174 57.552C171.614 57.12 170.99 56.904 170.302 56.904C169.486 56.904 168.854 57.208 168.406 57.816C167.958 58.424 167.734 59.312 167.734 60.48C167.734 61.472 167.886 62.384 168.19 63.216C168.51 64.032 168.942 64.68 169.486 65.16C170.03 65.624 170.654 65.856 171.358 65.856ZM188.36 65.712C188.392 65.712 188.408 65.76 188.408 65.856C188.408 65.952 188.392 66 188.36 66C187.944 66 187.616 65.992 187.376 65.976L186.152 65.952L184.832 65.976C184.592 65.992 184.272 66 183.872 66C183.824 66 183.8 65.952 183.8 65.856C183.8 65.76 183.824 65.712 183.872 65.712C184.304 65.712 184.624 65.672 184.832 65.592C185.04 65.512 185.176 65.36 185.24 65.136C185.32 64.896 185.36 64.536 185.36 64.056V61.608H180.416V64.056C180.416 64.536 180.448 64.896 180.512 65.136C180.592 65.36 180.736 65.512 180.944 65.592C181.152 65.672 181.472 65.712 181.904 65.712C181.936 65.712 181.952 65.76 181.952 65.856C181.952 65.952 181.936 66 181.904 66C181.488 66 181.16 65.992 180.92 65.976L179.696 65.952L178.4 65.976C178.16 65.992 177.832 66 177.416 66C177.368 66 177.344 65.952 177.344 65.856C177.344 65.76 177.368 65.712 177.416 65.712C177.848 65.712 178.168 65.672 178.376 65.592C178.584 65.512 178.72 65.36 178.784 65.136C178.864 64.896 178.904 64.536 178.904 64.056V58.68C178.904 58.2 178.864 57.848 178.784 57.624C178.72 57.384 178.584 57.224 178.376 57.144C178.184 57.064 177.872 57.024 177.44 57.024C177.392 57.024 177.368 56.976 177.368 56.88C177.368 56.784 177.392 56.736 177.44 56.736C177.84 56.736 178.152 56.744 178.376 56.76L179.696 56.784L180.944 56.76C181.184 56.744 181.504 56.736 181.904 56.736C181.936 56.736 181.952 56.784 181.952 56.88C181.952 56.976 181.936 57.024 181.904 57.024C181.472 57.024 181.152 57.072 180.944 57.168C180.736 57.264 180.592 57.432 180.512 57.672C180.448 57.896 180.416 58.248 180.416 58.728V61.128H185.36V58.68C185.36 58.2 185.32 57.848 185.24 57.624C185.176 57.384 185.04 57.224 184.832 57.144C184.64 57.064 184.328 57.024 183.896 57.024C183.848 57.024 183.824 56.976 183.824 56.88C183.824 56.784 183.848 56.736 183.896 56.736C184.296 56.736 184.608 56.744 184.832 56.76L186.152 56.784L187.4 56.76C187.64 56.744 187.96 56.736 188.36 56.736C188.392 56.736 188.408 56.784 188.408 56.88C188.408 56.976 188.392 57.024 188.36 57.024C187.928 57.024 187.608 57.072 187.4 57.168C187.192 57.264 187.048 57.432 186.968 57.672C186.904 57.896 186.872 58.248 186.872 58.728V64.056C186.872 64.536 186.904 64.896 186.968 65.136C187.048 65.36 187.192 65.512 187.4 65.592C187.608 65.672 187.928 65.712 188.36 65.712Z" fill="white"/>
</svg>
